<?xml version="1.0" standalone="no"?>
<!DOCTYPE svg PUBLIC "-//W3C//DTD SVG 20010904//EN"
 "http://www.w3.org/TR/2001/REC-SVG-20010904/DTD/svg10.dtd">
<svg version="1.0" xmlns="http://www.w3.org/2000/svg"
 width="512.000000pt" height="520.000000pt" viewBox="0 0 512.000000 520.000000"
 preserveAspectRatio="xMidYMid meet">

<g transform="translate(0.000000,520.000000) scale(0.100000,-0.100000)"
fill="#000000" stroke="none">
<path d="M2490 4650 l0 -30 115 0 115 0 0 30 0 30 -115 0 -115 0 0 -30z"/>
<path d="M2147 4639 c-55 -10 -105 -20 -112 -22 -12 -5 -9 -57 4 -57 14 0 215
41 219 45 2 2 0 15 -4 28 l-9 24 -98 -18z"/>
<path d="M2950 4631 c0 -28 3 -30 48 -36 26 -4 75 -13 110 -20 62 -13 62 -13
68 12 4 13 4 26 1 29 -4 4 -208 44 -224 44 -2 0 -3 -13 -3 -29z"/>
<path d="M1686 4512 c-55 -21 -101 -43 -103 -48 -2 -5 2 -18 10 -27 11 -17 19
-15 112 20 55 20 102 38 104 40 6 4 -9 53 -17 53 -4 -1 -52 -18 -106 -38z"/>
<path d="M3398 4526 c-5 -23 2 -27 99 -61 58 -20 106 -35 107 -33 2 1 8 12 14
24 11 20 6 23 -87 58 -54 20 -105 36 -113 36 -9 0 -18 -11 -20 -24z"/>
<path d="M1271 4312 c-52 -31 -96 -62 -97 -67 -2 -6 3 -18 10 -28 13 -17 20
-14 107 39 52 31 95 58 97 59 2 2 -2 15 -10 29 l-13 25 -94 -57z"/>
<path d="M3823 4348 c-9 -21 -3 -26 81 -76 50 -30 95 -54 99 -55 5 -1 15 8 24
20 14 21 12 23 -80 77 -52 31 -99 56 -104 56 -6 0 -14 -10 -20 -22z"/>
<path d="M4214 4098 c-19 -20 -18 -21 36 -70 101 -90 118 -102 135 -88 8 7 15
18 15 24 0 7 -38 45 -84 84 l-84 71 -18 -21z"/>
<path d="M887 4033 c-88 -76 -88 -77 -68 -96 20 -20 20 -20 53 6 18 15 58 49
88 76 l55 50 -20 20 -20 20 -88 -76z"/>
<path d="M4875 3867 c-27 -61 -62 -140 -78 -175 l-29 -62 -62 52 c-33 29 -62
53 -64 54 -1 0 5 36 14 79 l16 78 -26 25 -25 26 -16 -37 c-62 -149 -54 -139
-148 -177 l-86 -34 25 -27 25 -26 74 14 75 14 53 -57 c28 -31 53 -60 55 -64 1
-3 -77 -42 -174 -85 l-176 -78 34 -33 33 -32 235 29 235 28 80 -78 c44 -43 90
-84 102 -90 31 -16 63 -14 69 4 11 29 -20 80 -100 163 l-79 82 28 230 28 230
-28 30 c-16 17 -31 30 -34 30 -3 0 -28 -51 -56 -113z"/>
<path d="M2390 3895 c-714 -98 -1293 -638 -1435 -1338 -150 -745 220 -1499
900 -1837 152 -76 270 -118 428 -152 89 -19 132 -22 332 -22 202 0 243 2 335
22 523 114 951 442 1182 907 271 544 230 1172 -109 1685 -96 144 -302 355
-438 447 -360 243 -781 344 -1195 288z m520 -230 c175 -36 381 -121 523 -217
68 -46 199 -152 236 -191 l23 -26 -20 -28 c-11 -15 -62 -69 -114 -120 -72 -71
-112 -100 -168 -128 l-74 -35 -150 0 -149 0 7 -49 c10 -73 -3 -94 -81 -135
-37 -20 -85 -52 -106 -72 -31 -29 -48 -37 -85 -40 -122 -9 -172 -33 -172 -82
0 -44 -20 -105 -46 -139 -13 -18 -24 -45 -24 -63 l0 -31 63 7 c157 17 152 16
149 52 -3 27 3 39 33 68 20 18 42 34 49 34 7 0 25 -14 41 -30 l29 -30 -32 -33
c-39 -41 -40 -47 -2 -47 25 0 30 5 39 36 21 76 87 144 140 144 27 0 71 -21 73
-34 1 -6 2 -56 2 -111 l1 -100 33 -3 c24 -2 45 4 70 22 21 13 72 36 115 50 44
14 95 35 114 46 20 11 37 20 38 18 17 -19 64 -132 58 -138 -10 -9 -203 -73
-207 -69 -1 2 -14 24 -30 48 -20 31 -31 40 -39 32 -17 -17 8 -80 56 -143 24
-31 52 -77 61 -103 13 -32 22 -43 29 -36 13 13 50 -6 100 -53 21 -20 41 -36
45 -36 4 0 38 31 76 69 66 67 68 69 52 92 -28 43 -8 54 91 52 48 -2 103 -8
123 -14 44 -15 97 -52 82 -57 -22 -7 -12 -37 29 -87 63 -77 64 -82 25 -200
-73 -218 -184 -394 -355 -565 -220 -219 -454 -346 -761 -411 -149 -32 -420
-32 -566 -1 -126 27 -235 63 -342 113 -76 35 -83 40 -77 61 10 32 32 55 90 94
120 80 177 123 190 140 8 11 15 42 15 71 0 49 3 55 49 100 50 50 82 118 95
201 l6 42 -114 0 c-143 0 -146 2 -146 106 0 94 -9 112 -61 120 -56 9 -104 57
-120 118 -6 26 -19 50 -27 54 -9 3 -37 -2 -63 -11 -38 -14 -87 -17 -273 -17
l-226 0 -6 -27 c-10 -37 1 -49 81 -91 l70 -37 62 -120 c34 -66 78 -158 98
-205 48 -114 77 -156 126 -181 l42 -21 -7 -66 c-3 -37 -14 -96 -24 -130 l-18
-64 -75 59 c-237 190 -417 472 -494 774 -9 35 -18 72 -21 81 -4 14 4 18 45 24
42 5 57 13 86 45 32 36 35 44 35 104 0 36 2 65 5 65 3 0 32 -13 65 -30 66 -33
80 -36 80 -17 0 21 31 44 70 52 19 4 60 22 92 41 62 38 94 41 158 19 52 -18
94 -19 107 -2 6 6 13 28 17 48 9 51 46 102 81 113 91 27 92 32 32 107 -50 62
-97 138 -117 189 -22 56 -38 70 -85 70 -32 0 -56 -9 -91 -33 -44 -29 -49 -36
-49 -70 -1 -44 -10 -52 -83 -68 -60 -12 -92 -5 -144 34 -18 13 -41 27 -50 30
-15 5 -18 20 -18 94 0 88 0 89 29 100 20 7 31 20 35 41 8 34 31 58 61 64 15 3
20 11 19 36 -2 38 -38 111 -66 133 -19 15 -17 19 84 120 58 57 141 130 186
162 161 116 383 213 572 252 169 35 419 35 590 0z"/>
<path d="M1950 3339 c0 -14 -32 -54 -88 -110 -73 -72 -86 -90 -71 -94 27 -9
57 -55 95 -148 26 -64 34 -96 34 -146 0 -53 4 -70 26 -98 14 -19 32 -33 40
-31 7 2 45 34 84 73 l72 69 -4 66 c-3 63 -2 65 22 68 69 7 93 15 123 42 18 16
46 32 63 36 100 24 108 58 32 130 -152 142 -195 163 -330 164 -93 0 -98 -1
-98 -21z"/>
<path d="M2930 3043 c-1 -10 -14 -43 -30 -73 l-29 -55 -1 70 -1 70 -35 -70
c-19 -38 -34 -84 -34 -102 0 -29 3 -33 28 -34 15 -1 35 0 45 1 16 1 17 -4 12
-37 l-6 -38 35 37 36 38 0 105 c0 63 -4 105 -10 105 -5 0 -10 -8 -10 -17z"/>
<path d="M2656 2751 c-11 -12 -31 -27 -45 -34 -20 -9 -27 -21 -29 -50 -2 -20
-1 -37 3 -37 15 0 87 42 91 54 3 8 4 31 2 51 l-3 37 -19 -21z"/>
<path d="M2541 2145 c-59 -64 -101 -134 -101 -168 0 -38 14 -62 71 -124 30
-34 56 -77 73 -121 15 -38 40 -82 57 -98 30 -28 33 -29 137 -29 59 0 122 4
140 8 32 9 32 9 32 -30 0 -21 16 -108 35 -193 19 -85 35 -168 35 -183 0 -44
24 -80 93 -141 64 -56 64 -56 129 -56 78 0 78 -1 78 133 0 114 15 152 64 161
31 6 38 12 43 37 4 19 16 35 34 45 16 8 31 25 35 38 9 36 -13 134 -40 181 -26
44 -21 65 14 65 21 0 115 47 129 64 9 10 -3 18 -56 35 -157 52 -150 47 -190
125 -26 49 -60 92 -110 140 -65 62 -73 74 -73 107 0 24 -5 39 -16 43 -9 3
-141 6 -294 6 l-277 0 -42 -45z"/>
<path d="M565 3695 c-55 -71 -65 -88 -55 -100 21 -26 37 -17 92 52 84 106 81
102 68 118 -22 27 -38 16 -105 -70z"/>
<path d="M311 3309 c-29 -55 -51 -102 -50 -103 2 -2 14 -8 26 -15 20 -10 25
-5 72 85 28 53 51 99 51 102 0 6 -33 31 -41 32 -3 0 -29 -45 -58 -101z"/>
<path d="M132 2898 c-41 -128 -42 -131 -12 -138 24 -6 26 -2 61 99 20 58 33
109 30 112 -3 4 -16 10 -28 13 -20 6 -24 0 -51 -86z"/>
<path d="M35 2508 c-8 -47 -25 -171 -25 -185 0 -8 12 -13 28 -13 l29 0 15 108
c8 59 14 108 14 109 -1 1 -13 4 -28 8 -24 6 -27 4 -33 -27z"/>
<path d="M0 2028 c0 -29 3 -83 6 -119 l7 -65 29 4 c29 4 30 7 24 41 -3 20 -6
71 -6 114 l0 77 -30 0 c-30 0 -30 -1 -30 -52z"/>
<path d="M49 1613 c-3 -17 3 -52 23 -135 15 -68 24 -88 36 -88 39 1 41 12 21
100 -11 47 -22 95 -24 108 -4 15 -13 22 -30 22 -14 0 -26 -3 -26 -7z"/>
<path d="M188 1173 c-10 -2 -18 -7 -18 -9 0 -7 69 -174 81 -196 8 -15 14 -16
34 -6 14 6 24 14 23 18 -2 3 -21 50 -43 103 -22 53 -44 96 -50 96 -5 -1 -18
-3 -27 -6z"/>
<path d="M388 756 c-16 -12 -13 -20 38 -97 75 -113 76 -114 98 -90 18 20 17
23 -40 110 -33 50 -63 90 -69 90 -5 0 -18 -5 -27 -13z"/>
</g>
</svg>